<?xml version="1.0" standalone="no"?>
<!DOCTYPE svg PUBLIC "-//W3C//DTD SVG 20010904//EN"
 "http://www.w3.org/TR/2001/REC-SVG-20010904/DTD/svg10.dtd">
<svg version="1.0" xmlns="http://www.w3.org/2000/svg"
 width="500.000000pt" height="500.000000pt" viewBox="0 0 500.000000 500.000000"
 preserveAspectRatio="xMidYMid meet">

<g transform="translate(0.000000,500.000000) scale(0.100000,-0.100000)"
fill="#000000" stroke="none">
<path d="M2396 4649 c-32 -25 -56 -69 -56 -104 0 -43 -29 -44 -66 -1 -46 54
-109 66 -176 35 -51 -24 -59 -37 -78 -134 -13 -64 -3 -130 23 -157 7 -7 24
-33 39 -58 40 -69 62 -86 94 -71 25 11 26 14 23 86 -2 42 1 79 7 85 6 6 36 13
67 16 l56 6 -11 -39 c-6 -21 -11 -77 -12 -124 -1 -79 1 -89 27 -127 19 -27 44
-47 73 -59 38 -15 44 -22 45 -48 0 -16 4 -39 8 -49 5 -13 -1 -38 -18 -73 l-26
-53 -80 0 c-66 0 -89 -5 -132 -26 -118 -60 -164 -127 -166 -242 0 -44 5 -78
16 -98 l16 -30 -37 -20 c-115 -61 -162 -151 -140 -269 13 -73 36 -121 77 -159
28 -27 31 -36 31 -88 0 -87 43 -158 120 -198 39 -20 184 -45 201 -35 5 4 18 0
27 -8 66 -57 152 -62 267 -14 69 29 181 90 236 129 14 9 24 5 60 -25 24 -21
61 -43 84 -49 23 -7 54 -27 72 -47 l31 -36 -38 -41 c-21 -23 -51 -61 -66 -85
-34 -54 -96 -219 -129 -340 -13 -50 -26 -93 -28 -96 -6 -5 -39 -11 -157 -28
-163 -24 -354 -78 -495 -140 -102 -46 -149 -137 -85 -170 16 -8 36 -15 45 -15
8 0 15 -3 15 -7 0 -12 -141 -89 -175 -97 -35 -8 -55 -22 -78 -56 -24 -34 -21
-80 8 -137 17 -33 31 -89 45 -179 19 -131 19 -132 0 -188 -25 -69 -25 -111 -2
-156 19 -38 82 -79 122 -80 53 -1 49 -14 -39 -117 -130 -154 -160 -172 -364
-218 -144 -33 -191 -55 -262 -125 -41 -40 -80 -67 -124 -85 -88 -37 -232 -119
-264 -151 -58 -58 -198 -54 1973 -54 l2000 0 0 1818 c0 1732 -1 1816 -18 1791
-9 -14 -37 -53 -62 -85 -25 -33 -62 -95 -83 -139 -21 -44 -53 -111 -71 -150
-32 -69 -33 -70 -46 -45 -21 39 -100 316 -115 401 -12 70 -52 219 -76 279 -11
28 3 237 20 310 14 58 41 290 41 356 0 35 -6 59 -18 74 -18 23 -18 22 -31 -66
-20 -136 -40 -206 -65 -229 -17 -15 -25 -38 -31 -80 -7 -62 -19 -60 -30 7 -4
20 -17 49 -31 63 -13 14 -24 33 -24 41 0 7 -5 14 -11 14 -7 0 -9 -10 -4 -27
21 -86 35 -199 34 -278 -1 -59 3 -104 13 -130 10 -26 14 -60 10 -96 -3 -40 0
-63 11 -80 17 -25 47 -106 66 -177 7 -24 14 -91 15 -150 4 -106 23 -235 53
-343 14 -52 13 -62 -5 -140 -12 -46 -26 -106 -32 -132 -6 -29 -41 -95 -88
-170 -43 -67 -89 -139 -101 -160 l-23 -38 -36 37 c-53 55 -132 88 -192 81 -87
-10 -176 -74 -249 -177 -18 -25 -47 -57 -65 -72 -32 -26 -32 -26 -45 -6 -17
27 -77 50 -111 43 -26 -6 -28 -4 -40 44 -12 51 -55 115 -118 177 -18 18 -56
84 -87 149 -29 63 -60 118 -68 121 -8 3 -18 20 -21 37 -3 18 -24 57 -45 87
l-39 54 23 66 c13 36 26 77 29 93 4 15 24 45 46 67 47 47 71 120 73 218 1 75
-15 116 -66 170 -27 28 -32 41 -32 85 -2 108 -69 190 -182 223 -56 16 -93 13
-154 -12 -35 -15 -38 -15 -75 9 -49 32 -114 49 -168 45 -56 -4 -61 23 -13 67
63 57 82 176 42 255 -7 14 -16 35 -19 48 -7 20 -4 22 33 22 141 0 291 -82 336
-185 29 -65 65 -95 114 -95 79 0 122 51 122 147 0 68 -15 103 -83 190 -54 68
-110 106 -178 119 -76 15 -206 1 -307 -33 l-92 -30 5 46 c10 86 -52 141 -159
141 -40 0 -61 -5 -81 -21z m34 -84 c0 -5 -56 -35 -65 -35 -13 0 -3 40 12 49
16 8 53 -1 53 -14z m94 9 c20 -19 20 -29 0 -48 -14 -14 -18 -14 -39 2 -14 9
-25 20 -25 24 0 9 30 38 40 38 5 0 16 -7 24 -16z m36 -609 c0 -22 -37 -38 -44
-19 -10 27 -7 34 19 34 15 0 25 -6 25 -15z m594 -1454 c10 -11 15 -25 11 -31
-4 -6 5 -55 19 -110 15 -54 24 -110 21 -122 -3 -13 -2 -36 4 -51 8 -20 6 -35
-5 -63 -11 -27 -13 -47 -6 -79 l9 -43 -106 -1 c-58 -1 -130 -4 -160 -7 l-54
-5 7 43 c19 121 126 378 186 451 36 42 49 45 74 18z m1011 -15 c51 -24 110
-77 104 -93 -2 -5 -29 -46 -59 -91 l-55 -81 -65 -1 c-90 -1 -130 -22 -225
-119 -55 -56 -84 -79 -95 -75 -8 4 -33 10 -54 13 -32 5 -41 11 -49 34 -8 25
-6 32 22 55 17 15 37 44 44 66 12 36 48 79 182 220 91 94 161 114 250 72z
m-45 -311 c0 -3 -22 -49 -49 -103 -27 -53 -65 -136 -85 -183 -31 -72 -44 -91
-86 -122 -27 -20 -51 -37 -54 -37 -6 0 -17 108 -16 168 0 29 -4 61 -9 71 -8
15 2 32 62 96 39 43 88 86 109 95 35 16 128 27 128 15z m-2105 -1245 c8 -26
45 -51 88 -59 30 -6 32 -10 35 -54 3 -48 3 -48 -25 -41 -111 24 -144 60 -128
140 7 38 20 44 30 14z m713 -72 c-60 -70 -68 -71 -68 -9 0 49 1 50 33 54 85
10 84 12 35 -45z m-105 -35 l6 -77 -42 -38 c-41 -36 -144 -98 -165 -98 -10 0
-14 14 -27 91 l-7 35 62 18 c40 11 73 27 92 47 28 27 29 31 15 52 -8 12 -29
24 -48 28 l-34 6 35 5 c19 2 51 6 71 6 l36 2 6 -77z m-168 62 c-23 -8 -85 -10
-85 -3 0 4 21 8 48 7 26 0 43 -2 37 -4z m55 -60 c-10 -13 -97 -45 -121 -45
-12 0 -17 49 -5 54 6 2 40 5 75 5 55 1 62 -1 51 -14z m-336 -197 c3 -29 9 -66
12 -83 5 -28 2 -32 -58 -62 -35 -18 -89 -54 -122 -80 -32 -27 -68 -56 -81 -66
-22 -19 -71 -28 -325 -61 -63 -9 -126 -18 -140 -22 -25 -7 -25 -7 -6 14 33 37
116 70 254 102 188 42 222 63 356 219 48 56 91 99 95 96 5 -2 11 -28 15 -57z"/>
</g>
</svg>
