<?xml version="1.0" standalone="no"?>
<!DOCTYPE svg PUBLIC "-//W3C//DTD SVG 20010904//EN"
 "http://www.w3.org/TR/2001/REC-SVG-20010904/DTD/svg10.dtd">
<svg version="1.0" xmlns="http://www.w3.org/2000/svg"
 width="200.000000pt" height="200.000000pt" viewBox="0 0 200.000000 200.000000"
 preserveAspectRatio="xMidYMid meet">

<g transform="translate(0.000000,200.000000) scale(0.100000,-0.100000)"
fill="#000000" stroke="none">
<path d="M630 1994 c0 -28 74 -110 125 -140 18 -10 18 -12 2 -52 -34 -85 -12
-163 63 -223 55 -44 123 -182 127 -259 4 -63 1 -69 -50 -92 -28 -13 -39 -26
-43 -48 -4 -16 -13 -35 -20 -41 -8 -6 -14 -26 -14 -43 -1 -18 -11 -44 -25 -61
l-25 -30 0 71 c0 110 -47 193 -199 357 -123 132 -191 237 -206 319 -8 45 -31
69 -41 44 -4 -10 -4 -48 -2 -85 6 -80 26 -121 128 -261 166 -230 159 -217 166
-302 l7 -77 -62 32 c-62 32 -175 136 -243 225 -33 43 -66 54 -86 29 -6 -7 -14
-66 -18 -132 l-7 -120 28 -33 c38 -46 81 -65 143 -65 38 0 61 6 81 21 l28 21
41 -20 c64 -32 68 -41 48 -104 -26 -83 -30 -170 -12 -255 9 -41 16 -95 16
-119 l0 -44 -42 36 c-40 33 -43 38 -40 79 3 38 -2 51 -31 89 -18 25 -46 66
-61 92 -21 35 -34 47 -52 47 -19 0 -29 -13 -59 -76 -19 -42 -35 -87 -35 -99 0
-37 42 -88 86 -105 54 -20 136 -80 166 -122 14 -18 30 -52 36 -74 21 -74 63
-107 163 -128 54 -12 104 -173 64 -206 -12 -10 -13 -16 -4 -26 9 -11 55 -14
216 -14 l205 0 -6 25 c-3 14 -9 36 -12 50 -5 21 4 35 60 89 81 78 101 122 121
260 18 129 42 190 86 214 97 53 115 75 76 93 -21 9 -35 7 -83 -15 -117 -54
-154 -99 -179 -216 -23 -109 -93 -226 -114 -191 -5 7 -11 34 -15 59 -10 73
-47 126 -110 156 -29 14 -56 33 -60 42 -14 36 -6 102 17 135 19 29 30 35 72
39 63 7 88 21 113 62 26 43 35 89 23 120 -12 31 -8 36 57 77 61 39 146 137
175 201 12 26 22 76 25 118 l5 73 78 40 c59 29 85 49 103 77 22 35 27 37 63
34 34 -3 43 0 62 23 14 19 21 42 21 71 0 31 7 51 26 73 20 24 24 38 19 58 -6
25 -7 26 -72 20 -76 -7 -144 -37 -168 -74 -16 -24 -16 -48 -1 -98 9 -29 -27
-81 -73 -105 -64 -32 -75 -28 -68 25 4 25 16 64 28 86 17 34 18 43 7 50 -61
39 -129 -43 -153 -183 -3 -21 -11 -38 -16 -38 -6 0 -7 9 -2 23 4 12 8 49 8 83
-1 72 -17 103 -74 139 -35 21 -41 31 -51 82 -11 53 -10 104 6 191 l6 32 -281
0 c-154 -1 -281 -3 -281 -6z m1048 -312 c3 -18 -1 -22 -22 -22 -19 0 -26 5
-26 18 0 39 43 43 48 4z m62 -28 c11 -12 10 -18 -3 -31 -8 -9 -23 -13 -31 -10
-19 8 -21 43 -3 50 20 9 24 8 37 -9z m-1340 -500 c11 -12 10 -18 -3 -31 -8 -9
-23 -13 -31 -10 -19 8 -21 43 -3 50 20 9 24 8 37 -9z m-90 -24 c0 -24 -26 -38
-42 -22 -16 16 -2 42 22 42 13 0 20 -7 20 -20z m45 -455 c0 -21 -31 -33 -46
-18 -5 5 -7 17 -3 27 9 24 49 17 49 -9z m88 3 c7 -21 -4 -38 -23 -38 -23 0
-34 16 -26 35 7 18 43 20 49 3z"/>
<path d="M420 337 c0 -19 6 -53 14 -75 18 -51 86 -144 127 -174 17 -13 39 -37
50 -55 20 -32 23 -33 85 -33 35 0 64 4 64 9 0 12 -69 78 -149 144 -79 64 -98
89 -120 158 -15 46 -22 54 -44 57 -25 3 -27 0 -27 -31z"/>
</g>
</svg>
