<?xml version="1.0"?>
<svg width="200" height="200" xmlns="http://www.w3.org/2000/svg" xmlns:svg="http://www.w3.org/2000/svg" preserveAspectRatio="xMidYMid meet" version="1.0">
 <g class="layer">
  <title>Layer 1</title>
  <g fill="#000000" id="svg_1" transform="matrix(0.107364 0 0 -0.101485 -9.56094 -0.975256)">
   <path d="m649.64,-5.9c0,-28 74,-110 125,-140c18,-10 18,-12 2,-52c-34,-85 -12,-163 63,-223c55,-44 123,-182 127,-259c4,-63 1,-69 -50,-92c-28,-13 -39,-26 -43,-48c-4,-16 -13,-35 -20,-41c-8,-6 -14,-26 -14,-43c-1,-18 -11,-44 -25,-61l-25,-30l0,71c0,110 -47,193 -199,357c-123,132 -191,237 -206,319c-8,45 -31,69 -41,44c-4,-10 -4,-48 -2,-85c6,-80 26,-121 128,-261c166,-230 159,-217 166,-302l7,-77l-62,32c-62,32 -175,136 -243,225c-33,43 -66,54 -86,29c-6,-7 -14,-66 -18,-132l-7,-120l28,-33c38,-46 81,-65 143,-65c38,0 61,6 81,21l28,21l41,-20c64,-32 68,-41 48,-104c-26,-83 -30,-170 -12,-255c9,-41 16,-95 16,-119l0,-44l-42,36c-40,33 -43,38 -40,79c3,38 -2,51 -31,89c-18,25 -46,66 -61,92c-21,35 -34,47 -52,47c-19,0 -29,-13 -59,-76c-19,-42 -35,-87 -35,-99c0,-37 42,-88 86,-105c54,-20 136,-80 166,-122c14,-18 30,-52 36,-74c21,-74 63,-107 163,-128c54,-12 104,-173 64,-206c-12,-10 -13,-16 -4,-26c9,-11 55,-14 216,-14l205,0l-6,25c-3,14 -9,36 -12,50c-5,21 4,35 60,89c81,78 101,122 121,260c18,129 42,190 86,214c97,53 115,75 76,93c-21,9 -35,7 -83,-15c-117,-54 -154,-99 -179,-216c-23,-109 -93,-226 -114,-191c-5,7 -11,34 -15,59c-10,73 -47,126 -110,156c-29,14 -56,33 -60,42c-14,36 -6,102 17,135c19,29 30,35 72,39c63,7 88,21 113,62c26,43 35,89 23,120c-12,31 -8,36 57,77c61,39 146,137 175,201c12,26 22,76 25,118l5,73l78,40c59,29 85,49 103,77c22,35 27,37 63,34c34,-3 43,0 62,23c14,19 21,42 21,71c0,31 7,51 26,73c20,24 24,38 19,58c-6,25 -7,26 -72,20c-76,-7 -144,-37 -168,-74c-16,-24 -16,-48 -1,-98c9,-29 -27,-81 -73,-105c-64,-32 -75,-28 -68,25c4,25 16,64 28,86c17,34 18,43 7,50c-61,39 -129,-43 -153,-183c-3,-21 -11,-38 -16,-38c-6,0 -7,9 -2,23c4,12 8,49 8,83c-1,72 -17,103 -74,139c-35,21 -41,31 -51,82c-11,53 -10,104 6,191l6,32l-281,0c-154,-1 -281,-3 -281,-6zm1048,-312c3,-18 -1,-22 -22,-22c-19,0 -26,5 -26,18c0,39 43,43 48,4zm62,-28c11,-12 10,-18 -3,-31c-8,-9 -23,-13 -31,-10c-19,8 -21,43 -3,50c20,9 24,8 37,-9zm-1340,-500c11,-12 10,-18 -3,-31c-8,-9 -23,-13 -31,-10c-19,8 -21,43 -3,50c20,9 24,8 37,-9zm-90,-24c0,-24 -26,-38 -42,-22c-16,16 -2,42 22,42c13,0 20,-7 20,-20zm45,-455c0,-21 -31,-33 -46,-18c-5,5 -7,17 -3,27c9,24 49,17 49,-9zm88,3c7,-21 -4,-38 -23,-38c-23,0 -34,16 -26,35c7,18 43,20 49,3z" id="svg_2"/>
   <path d="m439.64,-1662.9c0,-19 6,-53 14,-75c18,-51 86,-144 127,-174c17,-13 39,-37 50,-55c20,-32 23,-33 85,-33c35,0 64,4 64,9c0,12 -69,78 -149,144c-79,64 -98,89 -120,158c-15,46 -22,54 -44,57c-25,3 -27,0 -27,-31z" id="svg_3"/>
  </g>
 </g>
</svg>