<?xml version="1.0" standalone="no"?>
<!DOCTYPE svg PUBLIC "-//W3C//DTD SVG 20010904//EN"
 "http://www.w3.org/TR/2001/REC-SVG-20010904/DTD/svg10.dtd">
<svg version="1.0" xmlns="http://www.w3.org/2000/svg"
 width="200.000000pt" height="500.000000pt" viewBox="0 0 200.000000 500.000000"
 preserveAspectRatio="xMidYMid meet">

<g transform="translate(0.000000,500.000000) scale(0.100000,-0.100000)"
fill="#000000" stroke="none">
<path d="M1870 4968 c-1 -18 -6 -190 -12 -383 -15 -475 -15 -474 6 -514 17
-32 17 -35 0 -67 -18 -33 -18 -36 0 -82 24 -60 31 -161 16 -221 -7 -26 -14
-123 -15 -221 -2 -124 -7 -187 -17 -215 l-15 -40 -15 65 c-13 60 -13 67 4 89
29 38 23 82 -15 119 -69 67 -156 60 -176 -15 -26 -91 -5 -143 56 -143 17 0 36
-6 42 -14 7 -8 24 -62 38 -120 l27 -106 -31 -33 c-45 -48 -109 -173 -126 -247
-9 -36 -18 -110 -21 -166 -3 -56 -9 -115 -12 -132 l-6 -31 -58 47 c-76 61
-171 175 -208 249 -22 43 -92 233 -92 248 0 1 25 18 55 38 99 67 93 89 -27
102 l-68 7 -10 41 c-6 23 -13 47 -14 53 -2 5 41 29 97 53 163 69 247 135 247
196 0 26 -62 86 -116 113 -22 11 -67 27 -100 35 -109 28 -329 60 -357 53 -36
-9 -340 -297 -374 -353 -36 -62 -29 -102 22 -128 33 -17 60 -20 160 -20 66 0
143 3 172 8 l52 8 17 -55 17 -55 -26 -21 c-82 -65 -76 -90 23 -105 l45 -7 23
-71 c35 -109 144 -324 201 -397 28 -36 88 -99 133 -141 46 -42 95 -94 110
-115 25 -36 27 -43 16 -77 l-11 -37 -111 2 c-125 1 -176 -11 -206 -49 -34 -44
-27 -91 25 -150 43 -49 44 -51 22 -57 -12 -3 -40 -6 -62 -6 -52 0 -103 -32
-121 -76 -13 -32 -13 -41 1 -83 8 -26 29 -61 45 -76 17 -16 30 -32 30 -36 0
-9 -50 -25 -105 -35 -57 -9 -85 -38 -85 -88 0 -71 61 -130 173 -166 55 -17 41
-34 -26 -31 -52 2 -60 0 -87 -28 -33 -33 -37 -58 -16 -100 18 -34 84 -94 128
-117 18 -9 35 -18 37 -20 2 -2 -14 -21 -37 -42 -51 -47 -56 -89 -17 -128 14
-14 25 -26 25 -28 0 -10 -91 -198 -94 -195 -3 2 -18 110 -35 239 -18 129 -40
268 -51 308 -24 88 -105 313 -131 364 -11 21 -19 41 -19 45 0 5 22 26 50 46
27 21 62 56 77 78 27 40 27 41 9 74 -49 90 -254 313 -308 336 -38 16 -52 0
-61 -66 -4 -25 -32 -99 -62 -165 -43 -93 -55 -129 -55 -168 0 -91 62 -147 180
-160 l61 -7 38 -85 c88 -194 133 -372 171 -665 11 -88 24 -178 29 -200 35
-154 35 -146 8 -208 -51 -113 -47 -113 -115 15 -51 96 -64 129 -81 221 -12 59
-21 112 -21 117 0 4 16 17 35 29 55 32 48 89 -18 159 -36 37 -64 40 -101 11
-58 -45 -73 -123 -33 -163 13 -13 28 -25 33 -27 6 -2 27 -71 48 -154 32 -126
48 -167 98 -258 l59 -108 -39 -47 c-22 -26 -52 -58 -67 -72 -15 -14 -40 -51
-56 -83 l-29 -57 670 0 670 0 0 2500 0 2500 -65 0 -65 0 0 -32z m-707 -1389
c14 -23 0 -67 -24 -74 -24 -8 -69 19 -69 41 0 8 5 24 11 35 13 24 66 23 82 -2z
m-262 -39 c22 -12 26 -59 7 -78 -28 -28 -88 -2 -88 38 0 22 26 50 46 50 9 0
24 -5 35 -10z m789 -95 c0 -8 -7 -15 -15 -15 -16 0 -20 12 -8 23 11 12 23 8
23 -8z m98 3 c-6 -18 -28 -21 -28 -4 0 9 7 16 16 16 9 0 14 -5 12 -12z m-718
-83 c-40 -42 -108 -40 -125 4 -9 24 5 26 21 3 9 -13 26 -22 40 -22 26 0 73 39
75 62 1 7 3 5 6 -5 3 -11 -5 -29 -17 -42z m215 -1325 c-5 -8 -11 -8 -17 -2 -6
6 -7 16 -3 22 5 8 11 8 17 2 6 -6 7 -16 3 -22z m122 -16 c-9 -9 -28 6 -21 18
4 6 10 6 17 -1 6 -6 8 -13 4 -17z m-639 -116 c30 -30 -11 -85 -44 -57 -14 12
-19 51 -7 62 10 11 38 8 51 -5z m-140 -30 c28 -28 1 -75 -38 -63 -14 4 -20 15
-20 35 0 37 33 53 58 28z m542 -124 c0 -16 -16 -19 -25 -4 -8 13 4 32 16 25 5
-4 9 -13 9 -21z m128 5 c-2 -6 -8 -10 -13 -10 -5 0 -11 4 -13 10 -2 6 4 11 13
11 9 0 15 -5 13 -11z m-218 -294 c0 -8 -7 -15 -15 -15 -16 0 -20 12 -8 23 11
12 23 8 23 -8z m100 0 c0 -8 -4 -15 -10 -15 -5 0 -10 7 -10 15 0 8 5 15 10 15
6 0 10 -7 10 -15z m-89 -248 c-1 -12 -15 -9 -19 4 -3 6 1 10 8 8 6 -3 11 -8
11 -12z m110 -50 c-13 -13 -26 -3 -16 12 3 6 11 8 17 5 6 -4 6 -10 -1 -17z
m59 -207 c0 -5 -4 -10 -10 -10 -5 0 -10 5 -10 10 0 6 5 10 10 10 6 0 10 -4 10
-10z m-96 -21 c-3 -5 -10 -7 -15 -3 -5 3 -7 10 -3 15 3 5 10 7 15 3 5 -3 7
-10 3 -15z m-494 -65 c0 -16 -16 -19 -25 -4 -8 13 4 32 16 25 5 -4 9 -13 9
-21z m81 11 c-1 -15 -24 -12 -29 3 -3 9 2 13 12 10 10 -1 17 -7 17 -13z"/>
</g>
</svg>
