<?xml version="1.0" standalone="no"?>
<!DOCTYPE svg PUBLIC "-//W3C//DTD SVG 20010904//EN"
 "http://www.w3.org/TR/2001/REC-SVG-20010904/DTD/svg10.dtd">
<svg version="1.0" xmlns="http://www.w3.org/2000/svg"
 width="200.000000pt" height="500.000000pt" viewBox="0 0 200.000000 500.000000"
 preserveAspectRatio="xMidYMid meet">

<g transform="translate(0.000000,500.000000) scale(0.100000,-0.100000)"
fill="#000000" stroke="none">
<path d="M0 2500 l0 -2500 670 0 670 0 -26 52 c-15 29 -63 92 -107 140 -44 48
-93 110 -109 139 l-30 51 21 107 c11 58 26 140 32 181 7 50 18 82 31 97 30 32
22 133 -13 169 -32 32 -50 25 -77 -32 -28 -57 -28 -101 0 -131 22 -23 22 -26
10 -142 -11 -107 -26 -180 -36 -170 -2 2 -52 109 -110 237 l-106 234 40 68
c22 37 74 105 116 149 72 77 78 81 118 81 31 0 48 6 63 23 32 34 55 86 51 115
-3 23 -8 27 -41 30 -50 4 -119 -35 -137 -78 -7 -17 -10 -33 -7 -37 3 -3 -40
-60 -97 -127 -57 -66 -109 -132 -116 -146 -8 -14 -15 -20 -17 -13 -7 19 108
204 131 213 36 13 56 46 63 98 7 59 -14 102 -49 102 -28 0 -108 -81 -108 -110
0 -13 5 -38 11 -55 11 -29 8 -39 -31 -109 -29 -53 -46 -74 -53 -67 -7 7 -6 19
1 38 7 15 11 44 11 63 0 19 3 50 6 68 6 26 3 38 -13 55 -11 12 -24 35 -28 50
-3 16 -12 31 -20 34 -10 3 -10 10 -2 28 16 36 3 69 -37 91 -19 10 -35 22 -35
26 0 7 151 130 236 191 29 20 59 48 68 62 14 21 24 25 69 25 64 0 93 18 107
68 14 51 13 125 -3 146 -15 21 -33 22 -116 6 -79 -16 -111 -44 -111 -101 0
-34 -5 -42 -37 -63 -21 -14 -72 -37 -113 -52 -41 -14 -92 -35 -114 -46 l-39
-20 7 47 c6 35 3 52 -9 72 -16 24 -16 28 5 64 18 33 20 44 11 72 -6 17 -13 57
-15 87 -2 30 -7 72 -11 92 -7 33 -1 48 53 145 185 332 196 354 248 528 22 77
45 139 50 138 45 -8 104 -9 115 -2 17 10 -9 41 -63 75 -28 18 -35 28 -31 44 4
13 11 19 22 16 9 -3 51 -10 94 -16 93 -14 107 -7 132 71 29 87 1 172 -87 266
-57 59 -154 113 -205 113 -107 0 -272 -109 -317 -209 -16 -35 -17 -45 -6 -71
14 -34 69 -71 144 -96 48 -17 65 -41 21 -30 -14 3 -36 9 -50 12 -39 10 -32
-23 15 -67 l40 -38 -40 -123 c-39 -120 -148 -354 -210 -451 -29 -45 -33 -48
-52 -35 -11 7 -28 34 -38 60 -9 25 -28 61 -41 79 l-23 33 22 80 c13 45 32 117
44 161 17 68 25 83 52 100 51 33 49 98 -5 160 -41 47 -84 48 -127 4 -61 -63
-66 -126 -12 -154 25 -13 30 -21 30 -53 -1 -51 -26 -160 -33 -142 -3 8 -13 40
-23 70 -9 30 -27 76 -40 101 -13 26 -40 104 -61 175 l-38 129 0 280 c0 173 -5
316 -13 375 -40 286 -48 465 -28 562 9 42 20 88 26 103 15 40 12 137 -6 186
-17 50 -13 131 12 200 7 23 14 43 14 45 0 2 -36 4 -80 4 l-80 0 0 -2500z m828
938 c28 -28 7 -78 -33 -78 -27 0 -45 18 -45 45 0 27 18 45 45 45 12 0 26 -5
33 -12z m233 -28 c37 -20 18 -80 -26 -80 -43 0 -63 58 -27 79 22 13 29 13 53
1z m-198 -175 c49 -20 69 -19 101 6 15 12 29 19 32 16 11 -11 -51 -47 -80 -47
-45 1 -116 35 -116 57 1 17 1 17 14 1 7 -10 29 -25 49 -33z m-477 -166 c8 -14
-21 -43 -35 -35 -19 12 -13 46 8 46 11 0 23 -5 27 -11z m84 -23 c0 -18 -21
-35 -36 -29 -17 6 -18 40 -1 46 17 6 37 -3 37 -17z m95 -1066 c3 -5 -1 -10
-10 -10 -9 0 -13 5 -10 10 3 6 8 10 10 10 2 0 7 -4 10 -10z m-55 -10 c0 -5 -4
-10 -10 -10 -5 0 -10 5 -10 10 0 6 5 10 10 10 6 0 10 -4 10 -10z m500 -15 c10
-12 10 -18 0 -29 -14 -18 -40 -10 -40 13 0 32 20 40 40 16z m59 -64 c19 -12 6
-41 -19 -41 -13 0 -20 7 -20 18 0 31 14 39 39 23z m-395 -472 c-3 -5 -10 -7
-15 -3 -5 3 -7 10 -3 15 3 5 10 7 15 3 5 -3 7 -10 3 -15z m-59 1 c3 -5 1 -10
-4 -10 -6 0 -11 5 -11 10 0 6 2 10 4 10 3 0 8 -4 11 -10z m523 -81 c-2 -6 -8
-10 -13 -10 -5 0 -11 4 -13 10 -2 6 4 11 13 11 9 0 15 -5 13 -11z m-228 -34
c0 -8 -7 -15 -15 -15 -8 0 -15 7 -15 15 0 8 7 15 15 15 8 0 15 -7 15 -15z
m250 -3 c0 -13 -12 -22 -22 -16 -10 6 -1 24 13 24 5 0 9 -4 9 -8z m-218 -27
c0 -5 -5 -11 -11 -13 -6 -2 -11 4 -11 13 0 9 5 15 11 13 6 -2 11 -8 11 -13z
m-198 -36 c-3 -5 -10 -7 -15 -3 -5 3 -7 10 -3 15 3 5 10 7 15 3 5 -3 7 -10 3
-15z m-66 -10 c-2 -6 -8 -10 -13 -10 -5 0 -11 4 -13 10 -2 6 4 11 13 11 9 0
15 -5 13 -11z m427 -368 c7 -12 -12 -24 -25 -16 -11 7 -4 25 10 25 5 0 11 -4
15 -9z m47 -16 c0 -5 -5 -11 -11 -13 -6 -2 -11 4 -11 13 0 9 5 15 11 13 6 -2
11 -8 11 -13z"/>
</g>
</svg>
