<?xml version="1.0" standalone="no"?>
<!DOCTYPE svg PUBLIC "-//W3C//DTD SVG 20010904//EN"
 "http://www.w3.org/TR/2001/REC-SVG-20010904/DTD/svg10.dtd">
<svg version="1.0" xmlns="http://www.w3.org/2000/svg"
 width="1920.000000pt" height="100.000000pt" viewBox="0 0 1920.000000 100.000000"
 preserveAspectRatio="xMidYMid meet">

<g transform="translate(0.000000,100.000000) scale(0.100000,-0.100000)"
fill="#000000" stroke="none">
<path d="M8403 708 l30 -103 -44 -83 c-37 -70 -45 -79 -50 -60 -3 13 -19 48
-34 78 -15 30 -31 66 -35 80 -3 14 -13 25 -21 25 -10 0 -15 -17 -17 -67 -3
-69 -15 -88 -26 -43 -7 26 -30 34 -40 13 -14 -31 8 113 25 165 24 71 16 90
-17 42 -52 -78 -105 -195 -124 -278 -16 -66 -25 -84 -52 -98 -20 -11 -21 -10
-15 38 3 26 12 67 20 91 19 56 7 45 -48 -38 -24 -39 -47 -70 -50 -70 -2 0 -20
31 -39 69 -34 67 -75 111 -102 111 -16 0 -18 -14 -4 -40 5 -10 16 -42 24 -72
8 -29 17 -61 21 -70 5 -14 2 -18 -14 -18 -24 0 -69 44 -83 83 -7 20 -13 25
-23 17 -20 -16 -25 -1 -25 76 0 40 -5 108 -12 151 l-12 78 -7 -75 c-4 -41 -18
-140 -32 -219 -14 -79 -23 -150 -20 -157 3 -9 -2 -14 -12 -14 -15 0 -16 7 -11
43 19 138 19 147 3 147 -18 0 -47 -36 -102 -128 -20 -35 -39 -61 -41 -59 -3 2
9 41 26 86 28 77 29 86 21 167 -8 80 -22 117 -37 101 -4 -4 -10 -40 -13 -79
-6 -66 -12 -80 -55 -145 -27 -40 -52 -73 -56 -73 -19 0 -33 69 -40 193 -8 138
-12 159 -29 141 -10 -10 -47 -153 -57 -223 -7 -41 -8 -42 -16 -21 -5 14 -8 47
-6 75 4 61 -20 70 -36 15 -10 -34 -11 -32 -16 35 -4 52 -9 70 -20 70 -9 0 -18
-21 -27 -64 -7 -36 -15 -66 -17 -68 -2 -3 -7 26 -11 64 -8 85 -11 93 -30 93
-10 0 -15 -10 -15 -27 0 -40 -35 -180 -58 -233 -19 -44 -20 -45 -30 -20 -43
108 -41 108 -62 7 l-12 -58 -42 68 c-40 65 -41 71 -35 124 5 45 23 95 57 162
2 4 -3 7 -11 7 -14 0 -64 -49 -100 -100 l-18 -25 -17 25 c-9 14 -29 38 -44 55
-25 28 -27 28 -28 9 0 -12 9 -42 20 -66 11 -25 22 -69 26 -99 5 -46 2 -61 -20
-104 l-25 -50 -1 55 c-1 58 0 58 -38 3 -11 -16 -12 -14 -9 15 3 27 -1 37 -20
49 -45 30 -54 152 -18 239 15 37 7 44 -21 17 -27 -28 -49 -88 -84 -233 -18
-74 -36 -138 -39 -142 -3 -4 -5 50 -3 120 l3 127 -26 -28 -25 -28 0 74 c0 77
-15 141 -31 131 -5 -3 -9 -26 -9 -52 0 -27 -13 -88 -32 -143 l-32 -96 -20 30
c-34 50 -46 46 -46 -15 0 -64 -4 -70 -35 -56 -25 11 -35 35 -35 84 0 35 -29
68 -56 62 -12 -2 -21 -21 -30 -68 -19 -91 -29 -110 -59 -110 -14 0 -28 0 -32
-1 -4 0 -11 13 -15 30 -8 28 -50 71 -71 71 -9 0 -8 -18 9 -107 6 -29 4 -33
-17 -33 -12 0 -19 3 -16 7 4 3 -2 16 -12 27 -20 21 -51 121 -51 163 0 53 -56
10 -62 -47 l-4 -35 -13 45 c-7 25 -18 59 -23 75 -5 17 -18 41 -29 55 -21 24
-21 24 -35 5 -8 -11 -13 -29 -10 -40 18 -67 28 -166 22 -207 -6 -42 -10 -48
-32 -48 -13 0 -24 1 -24 3 0 1 7 20 15 42 19 54 18 79 -4 106 l-18 23 -18 -34
c-27 -53 -107 -133 -117 -118 -4 7 -8 50 -8 96 0 63 -3 82 -14 82 -24 0 -40
-31 -61 -113 -27 -109 -51 -118 -41 -16 4 41 10 91 13 111 4 30 1 41 -20 62
-36 36 -47 33 -47 -14 0 -41 -39 -180 -51 -180 -8 0 -49 190 -49 226 0 29 -16
64 -29 64 -10 0 -52 -112 -54 -142 -1 -10 -6 -18 -12 -18 -21 0 -55 -46 -55
-74 0 -39 -16 -23 -24 24 -4 23 -12 40 -19 40 -24 0 -57 -45 -57 -77 0 -42
-11 -93 -20 -93 -4 0 -10 39 -11 86 -4 80 -6 87 -33 111 -30 25 -30 25 -38 4
-4 -11 -10 -44 -13 -73 -10 -83 -16 -87 -31 -23 -38 162 -64 211 -64 122 0
-42 -41 -182 -59 -200 -10 -10 -36 57 -46 115 -7 47 -23 57 -46 29 -15 -18
-16 -34 -12 -99 l6 -77 -22 19 c-11 11 -21 25 -21 33 0 19 -54 73 -72 73 -10
0 -19 -23 -28 -67 -12 -60 -14 -64 -26 -48 -8 10 -14 28 -14 39 -1 28 -68 119
-81 110 -11 -6 -8 -67 7 -143 4 -23 3 -32 -4 -27 -6 3 -13 40 -17 81 -5 49
-11 75 -19 72 -15 -5 -53 -73 -68 -125 -7 -23 -16 -42 -20 -42 -4 0 -4 10 1
22 5 13 12 59 15 103 6 58 17 103 43 163 19 46 32 86 29 90 -14 14 -43 -18
-86 -96 -25 -44 -55 -85 -67 -91 -12 -5 -38 -34 -57 -63 -27 -39 -36 -47 -36
-31 0 22 -55 76 -72 71 -6 -2 -12 -26 -14 -53 -4 -59 -14 -108 -20 -102 -3 2
-9 49 -13 104 -5 57 -17 118 -27 143 l-19 42 3 -107 c4 -115 -10 -175 -47
-209 -18 -16 -20 -14 -50 45 -17 34 -31 70 -31 80 0 28 -22 34 -40 11 l-18
-21 -6 31 c-3 17 -6 45 -6 64 0 18 -5 44 -11 58 -14 31 -39 42 -39 18 0 -43
-59 -245 -60 -205 0 16 -49 73 -63 73 -8 0 -11 -22 -10 -67 2 -66 2 -67 -9
-28 -6 22 -26 60 -45 84 -18 24 -33 48 -33 53 0 18 -52 78 -62 72 -11 -7 -5
-107 8 -154 l7 -25 -21 25 -20 25 -6 -25 c-3 -14 -8 -46 -11 -72 -6 -46 -7
-47 -36 -41 -21 4 -58 34 -114 91 -65 66 -84 80 -87 66 -7 -36 11 -116 41
-180 16 -35 26 -66 20 -69 -5 -4 -9 -2 -9 3 0 5 -12 14 -26 20 -15 7 -33 30
-45 57 -23 51 -41 56 -66 19 -14 -22 -15 -34 -7 -75 12 -56 3 -64 -20 -17 -19
38 -20 49 -2 116 7 30 9 55 4 58 -16 10 -38 -18 -50 -63 l-11 -45 -19 54 c-14
39 -16 58 -8 70 12 21 14 78 2 78 -17 0 -44 -39 -56 -80 l-12 -42 -13 44 c-15
49 -37 88 -51 88 -6 0 -10 -26 -10 -57 0 -75 -48 -233 -71 -233 -4 0 -9 19
-11 42 -4 50 -17 57 -53 26 -20 -18 -28 -36 -33 -78 l-7 -54 -36 32 c-28 24
-38 44 -48 88 -13 57 -52 111 -71 99 -6 -3 -10 -22 -10 -41 0 -19 -3 -34 -7
-34 -5 0 -28 37 -52 83 -50 93 -107 172 -124 172 -25 0 -12 -109 21 -174 17
-33 27 -61 22 -61 -12 0 -42 46 -65 98 -19 44 -45 57 -45 21 0 -11 13 -50 28
-87 40 -94 50 -142 16 -77 -33 63 -31 61 -52 42 -10 -9 -24 -44 -31 -79 -16
-79 -30 -61 -32 42 -2 121 -12 185 -29 185 -12 0 -17 -20 -22 -88 -9 -99 -21
-153 -41 -181 -37 -51 -92 57 -89 174 2 115 -24 120 -57 10 -12 -39 -30 -79
-41 -90 -18 -18 -19 -18 -29 30 -6 27 -14 69 -17 92 -9 57 -32 110 -44 103 -6
-3 -10 -58 -10 -121 0 -112 -1 -117 -30 -158 -47 -69 -56 -66 -59 21 -2 74
-12 116 -29 127 -11 6 -22 -25 -22 -62 0 -27 -39 -122 -50 -122 -11 0 -48 177
-54 259 -5 73 -10 90 -23 78 -10 -11 -22 -96 -23 -177 -2 -84 -17 -153 -20
-90 0 19 -9 78 -18 130 -13 68 -22 95 -32 95 -11 0 -15 -14 -17 -55 -2 -68
-23 -199 -33 -205 -10 -6 -15 7 -30 90 -28 153 -72 267 -90 234 -4 -8 -14 -87
-21 -176 -13 -167 -29 -218 -29 -93 0 73 -22 146 -40 135 -5 -3 -10 -15 -10
-26 0 -37 -17 -10 -29 48 -15 65 -37 113 -51 113 -6 0 -10 -33 -10 -75 0 -68
-3 -78 -25 -99 -14 -13 -25 -31 -25 -42 0 -15 -5 -13 -29 10 -35 34 -61 30
-54 -8 6 -28 -14 -86 -29 -86 -22 0 -20 66 8 198 7 33 -38 30 -65 -4 l-21 -27
0 87 c0 135 -30 172 -48 59 -23 -152 -65 -303 -84 -303 -16 0 -16 22 -1 103
14 80 14 89 -1 112 -9 14 -20 25 -25 25 -5 0 -18 -21 -28 -48 l-18 -47 -5 45
c-6 55 -28 60 -51 13 -16 -32 -16 -31 -22 75 -6 112 -28 204 -57 235 -16 18
-18 13 -22 -85 -4 -80 -12 -124 -37 -197 -43 -128 -54 -142 -46 -61 4 35 7 69
8 75 1 5 -5 10 -13 10 -14 0 -22 -17 -36 -80 -7 -29 -7 -29 -15 15 -5 25 -6
53 -3 62 8 26 -20 23 -49 -5 -49 -44 -57 -90 -57 -312 l0 -205 9600 0 9600 0
0 185 0 185 -52 74 c-29 41 -67 99 -85 128 l-32 53 0 -65 c0 -80 13 -198 24
-224 14 -33 -80 77 -109 126 -15 27 -31 48 -36 48 -20 0 -19 -41 1 -91 43
-108 41 -100 14 -87 -22 10 -55 71 -55 102 0 14 -59 70 -66 63 -2 -2 0 -37 6
-78 5 -41 9 -103 10 -139 l0 -65 -25 30 c-14 17 -35 47 -47 67 -28 48 -48 56
-48 20 0 -15 -4 -33 -9 -41 -7 -11 -13 -7 -25 17 -17 33 -62 69 -73 59 -3 -4
0 -26 6 -51 16 -63 15 -82 -3 -67 -8 6 -19 25 -26 41 -7 17 -19 30 -26 30 -20
0 -17 39 10 138 37 133 40 152 24 152 -22 0 -67 -53 -166 -195 -67 -97 -96
-131 -111 -131 -25 0 -27 9 -5 27 24 20 84 118 100 162 35 98 4 95 -90 -9 -97
-107 -116 -114 -71 -25 35 70 44 111 25 111 -6 0 -29 -17 -53 -38 -23 -21 -61
-53 -84 -70 -23 -18 -51 -48 -63 -67 -18 -29 -24 -33 -35 -22 -8 6 -21 18 -30
25 -8 7 -15 22 -15 33 0 36 -66 141 -101 159 -17 9 -17 11 16 -114 4 -14 1
-12 -10 7 -17 29 -30 34 -41 16 -4 -8 -14 2 -26 25 -28 55 -44 42 -40 -35 2
-35 6 -73 9 -84 5 -17 4 -18 -11 -6 -9 7 -25 11 -37 8 -20 -5 -21 -3 -14 39 7
47 -12 94 -38 94 -6 0 -27 -35 -46 -78 -46 -101 -59 -122 -82 -122 -24 0 -43
44 -35 83 8 40 -24 36 -69 -10 -34 -35 -37 -36 -31 -13 20 76 28 162 17 186
-16 36 -32 26 -51 -32 -26 -77 -59 -139 -87 -165 l-25 -24 7 25 c10 35 35 82
52 102 14 15 13 18 -11 24 -31 7 -71 -15 -81 -47 -7 -20 -8 -19 -36 13 -24 28
-30 31 -39 18 -5 -8 -10 -24 -10 -34 0 -40 -78 -125 -100 -111 -6 3 -10 13
-10 20 0 16 -21 45 -60 82 -13 14 -34 50 -46 81 -47 122 -90 220 -103 235 -22
27 -34 20 -27 -15 4 -18 11 -67 16 -108 6 -41 12 -87 15 -102 3 -22 -1 -28
-26 -37 -32 -11 -59 -60 -59 -105 0 -14 -4 -27 -9 -30 -14 -9 -18 61 -7 120 6
38 6 58 -1 65 -15 15 -33 3 -33 -22 0 -10 -4 -19 -8 -19 -5 0 -16 -18 -26 -41
-10 -22 -20 -38 -23 -36 -2 3 5 53 16 111 25 130 25 126 3 126 -29 0 -60 -41
-84 -111 l-22 -64 -27 85 c-27 82 -65 136 -91 128 -11 -4 -11 3 -3 -133 4 -62
3 -121 -3 -135 -8 -22 -11 -18 -31 43 -14 41 -28 67 -37 67 -18 0 -18 -15 1
-76 8 -27 15 -60 15 -73 l0 -25 -29 28 c-16 15 -37 43 -47 61 -16 31 -48 50
-64 40 -4 -3 1 -35 11 -72 24 -87 24 -100 -3 -40 -11 26 -24 47 -29 47 -4 0
-27 19 -51 42 -41 41 -43 42 -46 20 -2 -13 1 -36 7 -52 8 -24 7 -28 -5 -23 -8
3 -18 -4 -23 -18 -9 -22 -10 -20 -10 14 -1 67 -31 191 -51 211 -25 26 -32 18
-20 -25 20 -68 8 -169 -20 -169 -4 0 -18 29 -30 65 -31 94 -60 86 -60 -17 0
-57 -13 -60 -41 -8 -10 18 -24 37 -30 41 -9 5 -9 18 -2 48 10 36 9 41 -6 41
-10 0 -27 -10 -39 -23 -25 -26 -72 -155 -73 -201 l-1 -31 -8 30 c-4 17 -16
101 -25 188 -10 86 -22 154 -25 150 -4 -5 -15 -84 -24 -178 -9 -93 -19 -171
-21 -174 -10 -9 -5 169 6 218 6 27 9 65 7 83 l-3 33 -31 -30 c-24 -24 -37 -56
-68 -165 -21 -74 -42 -139 -47 -145 -5 -5 -9 18 -9 57 0 51 -5 71 -21 92 -24
31 -39 33 -39 6 0 -22 -31 -100 -40 -100 -3 0 -14 26 -25 58 -29 82 -50 78
-49 -10 1 -61 -1 -67 -24 -77 -13 -7 -27 -9 -30 -7 -2 3 -13 45 -24 93 -14 64
-17 108 -12 161 3 42 2 72 -4 72 -30 0 -82 -118 -82 -186 0 -36 -1 -35 -35 32
-19 38 -35 74 -35 80 0 18 -38 47 -54 41 -13 -5 -13 -12 4 -49 25 -59 55 -202
46 -224 -6 -15 -13 -4 -31 46 -17 46 -35 74 -62 97 -20 17 -40 30 -44 28 -3
-3 -19 9 -34 25 -16 17 -39 30 -52 30 -27 0 -28 -6 -8 -40 17 -30 18 -97 1
-165 l-12 -50 -17 38 c-17 39 -49 83 -89 124 -35 36 -46 12 -20 -42 12 -25 22
-52 22 -60 0 -25 -40 5 -47 35 -8 36 -32 80 -43 80 -5 0 -6 -46 -3 -107 3 -60
1 -119 -4 -132 -8 -21 -14 -12 -52 75 -24 55 -49 109 -57 121 -22 36 -16 79
21 157 19 40 35 79 35 85 0 30 -38 1 -79 -61 l-46 -68 -45 43 c-73 70 -282
160 -264 114 3 -8 29 -31 57 -49 67 -45 159 -129 176 -161 12 -23 11 -29 -9
-61 -30 -50 -54 -47 -70 9 -10 37 -37 78 -41 64 -1 -2 -7 -35 -14 -74 -8 -45
-13 -59 -14 -37 0 17 -5 32 -11 32 -5 0 -10 7 -10 15 0 25 -20 17 -31 -12 -5
-15 -15 -50 -22 -78 l-11 -50 -6 54 c-5 48 -2 61 27 116 37 71 66 146 58 153
-7 8 -53 -37 -76 -75 -26 -42 -35 -41 -43 1 -7 34 -69 116 -80 105 -4 -4 -2
-35 4 -70 5 -35 10 -92 10 -126 0 -54 -4 -68 -32 -109 l-33 -46 -3 49 c-5 76
-72 132 -72 61 0 -40 -18 -76 -46 -95 -20 -13 -26 -11 -68 27 -28 23 -57 40
-72 40 -28 0 -30 -11 -8 -45 18 -28 9 -33 -17 -9 -21 19 -39 11 -40 -19 0 -12
-3 -17 -5 -11 -3 7 7 57 21 112 14 55 25 106 25 113 0 18 -28 -9 -47 -45 -9
-17 -27 -43 -41 -57 -13 -14 -36 -48 -51 -75 -14 -27 -35 -50 -45 -52 -17 -4
-18 0 -13 42 9 62 -6 66 -54 15 l-39 -42 35 99 c61 172 41 178 -71 22 -18 -24
-35 -58 -39 -75 -3 -18 -11 -35 -16 -38 -13 -9 -11 63 3 102 6 18 9 36 5 40
-15 14 -62 -35 -76 -80 -8 -26 -18 -47 -23 -47 -4 0 -8 35 -8 78 0 42 -3 87
-6 100 -6 22 -8 22 -25 6 -11 -9 -19 -24 -20 -33 0 -10 -4 -7 -10 8 -5 13 -11
22 -14 19 -17 -17 -85 -155 -85 -174 0 -12 -3 -29 -6 -37 -5 -13 -9 -12 -26 5
-11 11 -26 17 -34 14 -10 -4 -22 20 -44 92 -36 114 -45 133 -53 106 -16 -52
-27 -147 -27 -223 l0 -85 -45 73 c-25 40 -45 77 -45 81 0 21 -24 60 -37 60
-12 0 -13 -12 -8 -57 4 -32 11 -75 17 -97 9 -39 5 -57 -11 -40 -5 5 -16 30
-26 56 -23 63 -45 82 -45 40 0 -36 -18 -88 -27 -79 -3 4 -8 53 -11 109 -2 57
-9 112 -15 123 -11 19 -12 19 -14 -5 -2 -14 -16 -83 -31 -155 -27 -130 -27
-130 -34 -80 -19 136 -44 240 -58 240 -12 0 -15 -21 -17 -113 -1 -63 -3 -116
-6 -118 -4 -5 -26 17 -78 75 -25 28 -46 90 -59 174 -12 72 -14 77 -30 62 -11
-10 -22 -45 -29 -90 -11 -67 -15 -75 -35 -75 -28 0 -65 -39 -102 -109 l-29
-55 -5 86 c-3 51 -11 92 -19 102 -8 9 -16 15 -18 13 -2 -3 -8 -32 -14 -67 -12
-75 -41 -135 -82 -172 l-31 -28 -12 36 c-7 20 -15 58 -19 84 -7 52 -37 110
-58 110 -10 0 -12 -24 -10 -102 2 -83 1 -98 -8 -78 -51 112 -72 150 -85 150
-12 0 -13 -13 -8 -80 7 -78 2 -94 -23 -69 -6 6 -22 17 -35 23 -12 7 -21 19
-19 27 14 54 -8 55 -84 3 -28 -19 -57 -34 -66 -34 -8 0 -19 -4 -25 -10 -6 -6
-8 4 -6 30 3 34 12 46 61 86 57 47 48 52 -29 14 -19 -9 -48 -20 -65 -24 -62
-15 -134 -57 -174 -102 -37 -42 -41 -45 -41 -23 0 14 9 56 19 94 11 38 18 71
16 73 -7 8 -43 -24 -90 -81 -27 -33 -50 -56 -51 -51 -1 5 -18 62 -38 126 -29
94 -44 126 -76 163 -22 26 -40 50 -40 56 0 5 -7 9 -16 9 -14 0 -16 -8 -11 -47
39 -328 37 -338 -35 -170 -31 73 -63 133 -71 135 -17 4 -29 -100 -20 -177 5
-47 5 -50 -16 -44 -19 5 -21 12 -21 68 0 49 -4 66 -20 80 -22 20 -26 16 -34
-50 -2 -22 -12 -71 -22 -109 l-17 -69 -24 64 c-24 65 -47 98 -59 86 -4 -3 -6
-36 -5 -73 1 -60 0 -65 -15 -54 -8 8 -22 26 -30 42 -20 40 -33 27 -26 -27 3
-27 1 -45 -6 -45 -14 0 -22 25 -23 78 -1 26 -5 61 -9 77 -8 36 -12 28 -38 -70
-13 -51 -22 -71 -36 -73 -17 -4 -17 4 -11 127 10 171 -11 177 -66 17 l-24 -69
-8 44 c-4 24 -7 81 -5 127 2 45 0 82 -3 82 -23 0 -78 -107 -80 -155 0 -19 -1
-19 -9 1 -5 12 -4 54 2 98 10 65 9 79 -4 92 -13 14 -18 8 -41 -46 -15 -34 -27
-68 -27 -76 0 -8 -11 -36 -25 -63 -13 -27 -29 -70 -36 -96 -18 -71 -33 -33
-24 61 4 49 3 74 -4 74 -24 0 -63 -48 -76 -95 l-15 -50 5 61 c5 51 2 65 -15
87 -34 43 -45 34 -65 -50 -23 -102 -31 -115 -39 -70 -4 19 -14 41 -23 48 -9 8
-31 45 -48 83 -31 66 -33 68 -45 46 -8 -16 -10 -44 -6 -87 5 -44 3 -63 -4 -58
-5 3 -10 18 -10 33 0 15 -17 53 -38 84 -20 31 -42 65 -48 75 -10 14 -14 16
-25 5 -11 -10 -11 -22 0 -70 19 -83 25 -158 13 -166 -5 -3 -13 10 -17 30 -7
42 -45 84 -74 84 -18 0 -20 -5 -14 -50 l6 -51 -27 12 c-22 10 -29 9 -47 -7
l-22 -19 7 30 c4 17 9 80 13 140 5 91 3 113 -9 123 -13 11 -19 1 -42 -73 -38
-122 -123 -222 -158 -187 -6 6 3 27 26 60 20 27 36 54 36 60 0 19 -25 19 -49
1 -33 -26 -97 -25 -111 0 -14 28 -12 96 4 136 8 19 11 35 6 35 -16 0 -51 -54
-61 -97 -13 -50 -24 -55 -32 -15 -6 31 -43 82 -59 82 -7 0 -9 -33 -6 -99 5
-108 -1 -131 -36 -131 -25 0 -76 56 -76 84 0 9 -9 16 -20 16 -24 0 -24 2 -1
-51 10 -24 22 -60 26 -79 l7 -35 -29 28 c-36 33 -48 34 -77 2 l-23 -25 -27 51
c-25 45 -68 81 -81 67 -3 -3 4 -26 16 -52 11 -26 19 -50 16 -52 -9 -10 -35 35
-49 87 -15 53 -15 63 2 135 10 43 18 80 16 81 -1 1 -17 -20 -35 -48 -19 -27
-37 -49 -41 -49 -3 0 -28 39 -55 88 -54 97 -72 122 -90 122 -9 0 -4 -31 18
-102z m-2106 -180 c-3 -8 -6 -5 -6 6 -1 11 2 17 5 13 3 -3 4 -12 1 -19z m1873
-50 c0 -15 -4 -30 -10 -33 -6 -4 -10 12 -10 42 0 35 3 44 10 33 5 -8 10 -27
10 -42z m-2513 -30 c-3 -8 -6 -5 -6 6 -1 11 2 17 5 13 3 -3 4 -12 1 -19z
m10175 -20 c-9 -9 -12 -7 -12 12 0 19 3 21 12 12 9 -9 9 -15 0 -24z m1034 -53
c5 -41 6 -75 3 -75 -10 0 -29 75 -29 114 0 63 16 39 26 -39z m-4657 -112 c-15
-28 -55 -33 -44 -5 3 9 12 46 20 82 23 108 30 113 33 25 2 -49 -2 -88 -9 -102z
m-4532 75 c-2 -13 -4 -5 -4 17 -1 22 1 32 4 23 2 -10 2 -28 0 -40z m7062 -38
c0 -11 -3 -10 -14 4 -8 11 -15 34 -14 50 l1 31 13 -35 c7 -19 14 -42 14 -50z
m-1122 18 c-3 -8 -6 -5 -6 6 -1 11 2 17 5 13 3 -3 4 -12 1 -19z m-2264 -43
c-35 -42 -53 -55 -53 -38 0 7 80 81 88 83 2 0 -14 -20 -35 -45z m162 -55 c-3
-5 -11 -10 -16 -10 -6 0 -7 5 -4 10 3 6 11 10 16 10 6 0 7 -4 4 -10z"/>
</g>
</svg>
