<?xml version="1.0" standalone="no"?>
<!DOCTYPE svg PUBLIC "-//W3C//DTD SVG 20010904//EN"
 "http://www.w3.org/TR/2001/REC-SVG-20010904/DTD/svg10.dtd">
<svg version="1.0" xmlns="http://www.w3.org/2000/svg"
 width="1547.000000pt" height="101.000000pt" viewBox="0 0 1547.000000 101.000000"
 preserveAspectRatio="xMidYMid meet">

<g transform="translate(0.000000,101.000000) scale(0.100000,-0.100000)"
fill="#000000" stroke="none">
<path d="M0 795 l0 -215 70 0 c39 0 70 4 70 9 0 5 67 11 152 13 110 2 153 6
156 16 3 9 57 12 228 12 l224 0 0 25 c0 25 0 25 -95 25 -95 0 -95 0 -95 25 0
23 3 25 50 25 28 0 50 -4 50 -10 0 -5 18 -10 40 -10 22 0 40 -4 40 -10 0 -6
75 -10 205 -10 130 0 205 4 205 10 0 6 -11 10 -24 10 -13 0 -26 5 -28 10 -2 6
-58 16 -126 22 -88 9 -122 15 -122 25 0 20 183 18 204 -2 10 -11 36 -15 88
-15 127 0 363 -20 366 -30 6 -16 32 -12 32 5 0 8 -7 15 -15 15 -9 0 -15 9 -15
21 0 21 3 22 81 16 45 -3 85 -9 88 -15 7 -10 210 -26 331 -26 169 0 620 18
620 24 0 13 -89 19 -377 26 -266 7 -283 8 -283 25 0 18 11 19 169 19 206 0
291 -8 291 -26 0 -11 27 -14 128 -14 182 -1 436 -18 440 -30 2 -5 34 -10 72
-10 59 0 68 2 73 20 5 20 11 20 209 15 275 -8 388 -15 388 -26 0 -5 135 -9
320 -9 176 0 320 3 320 6 0 13 -30 34 -49 34 -18 0 -21 6 -21 40 l0 40 45 0
c32 0 45 -4 45 -14 0 -10 38 -17 165 -27 117 -9 165 -16 165 -25 0 -9 70 -13
293 -16 160 -1 325 -2 365 0 l72 4 0 39 0 39 45 0 c30 0 45 -4 45 -13 0 -8 24
-18 60 -26 38 -9 60 -19 60 -27 0 -12 78 -14 470 -14 411 0 470 2 470 15 0 10
10 15 30 15 20 0 30 -5 30 -15 0 -13 79 -15 655 -15 576 0 655 2 655 15 0 10
10 15 30 15 23 0 30 -5 30 -19 0 -17 14 -19 221 -23 152 -4 223 -9 228 -17 5
-8 98 -12 332 -12 238 -1 311 -4 277 -11 -27 -6 -48 -14 -48 -19 0 -5 -9 -9
-20 -9 -11 0 -20 -4 -20 -10 0 -5 -30 -11 -67 -13 -65 -3 -64 -3 19 -5 66 -2
90 2 102 13 17 18 186 22 186 5 0 -6 37 -10 90 -10 53 0 90 4 90 10 0 6 6 10
14 10 8 0 16 5 18 10 4 13 112 30 196 30 34 0 62 4 62 10 0 10 32 16 138 25
66 6 72 5 72 -13 0 -16 -13 -20 -107 -29 -59 -7 -109 -16 -111 -22 -2 -6 -12
-11 -23 -11 -10 0 -19 -4 -19 -9 0 -6 -15 -12 -32 -14 -18 -2 100 -4 262 -5
162 -1 319 1 348 4 45 6 52 10 52 29 0 21 6 22 92 29 50 3 167 6 259 6 125 0
168 3 171 12 4 10 151 14 681 16 604 2 677 1 677 -13 0 -10 10 -15 30 -15 27
0 30 -3 30 -30 0 -28 -2 -29 -52 -33 -29 -2 12 -3 92 -2 97 1 145 6 148 14 2
6 15 11 28 11 13 0 24 5 24 10 0 6 23 10 50 10 47 0 50 -1 50 -26 l0 -27 88 7
c48 4 89 12 90 17 2 5 35 9 73 9 38 0 69 4 69 9 0 9 21 12 153 27 l57 6 0 -31
c0 -17 -1 -32 -2 -32 -2 -1 -93 -5 -202 -8 -146 -4 -200 -9 -204 -18 -2 -8
-21 -13 -48 -13 -24 0 -44 -4 -44 -10 0 -6 80 -10 220 -10 140 0 220 -4 220
-10 0 -5 9 -10 20 -10 11 0 20 5 20 10 0 6 115 10 325 10 210 0 325 4 325 10
0 6 20 10 45 10 25 0 45 4 45 9 0 6 19 12 43 15 78 10 337 13 337 5 0 -5 -9
-9 -20 -9 -11 0 -20 -4 -20 -10 0 -5 -25 -10 -55 -10 -30 0 -55 -4 -55 -10 0
-6 -28 -10 -65 -10 -51 0 -65 -3 -65 -15 0 -12 -16 -15 -85 -15 -50 0 -85 -4
-85 -10 0 -6 -38 -11 -92 -11 -51 -1 -83 -4 -70 -6 12 -2 22 -11 22 -19 0 -9
11 -14 30 -14 17 0 30 -4 30 -9 0 -5 50 -11 112 -13 73 -3 113 -9 116 -16 6
-18 112 -16 112 2 0 11 28 14 147 14 96 0 149 4 151 11 2 6 10 11 18 11 8 0
14 6 14 14 0 9 24 15 92 19 51 3 94 11 96 17 6 17 82 13 82 -5 0 -8 -4 -15
-10 -15 -5 0 -10 -7 -10 -15 0 -8 -7 -15 -15 -15 -19 0 -19 -17 -1 -36 12 -12
76 -14 375 -14 l361 0 0 260 0 260 -7735 0 -7735 0 0 -215z"/>
<path d="M4638 783 c12 -2 32 -2 45 0 12 2 2 4 -23 4 -25 0 -35 -2 -22 -4z"/>
<path d="M4848 773 c23 -2 59 -2 80 0 20 2 1 4 -43 4 -44 0 -61 -2 -37 -4z"/>
<path d="M6283 773 c9 -2 17 -9 17 -14 0 -5 41 -9 90 -9 50 0 90 4 90 9 0 5
12 12 28 14 15 2 -34 4 -108 4 -74 1 -127 -1 -117 -4z"/>
<path d="M7345 773 c55 -3 92 -8 97 -16 6 -9 8 -9 8 0 0 6 10 14 23 16 12 2
-32 4 -98 4 -101 -1 -106 -2 -30 -4z"/>
<path d="M5750 760 c0 -6 45 -10 115 -10 70 0 115 4 115 10 0 6 -45 10 -115
10 -70 0 -115 -4 -115 -10z"/>
<path d="M7890 760 c0 -6 -62 -11 -152 -13 -84 -1 -22 -3 137 -3 160 0 233 2
163 3 -74 2 -128 8 -128 13 0 6 -4 10 -10 10 -5 0 -10 -4 -10 -10z"/>
<path d="M2900 741 c0 -6 17 -7 38 -4 51 8 53 13 4 13 -23 0 -42 -4 -42 -9z"/>
<path d="M11983 743 c-113 -4 -113 -4 -113 -28 0 -24 3 -25 60 -25 33 0 60 4
60 10 0 6 11 10 25 10 14 0 25 4 25 8 0 5 21 13 48 19 26 6 38 10 27 9 -11 0
-71 -2 -132 -3z"/>
<path d="M8588 733 c23 -2 42 -8 42 -14 0 -5 32 -9 70 -9 39 0 70 4 70 9 0 9
-113 22 -180 19 l-45 -1 43 -4z"/>
<path d="M11228 733 c-21 -2 -38 -8 -38 -14 0 -5 -13 -9 -30 -9 -16 0 -30 -4
-30 -10 0 -5 -28 -11 -62 -13 -35 -2 92 -4 281 -3 266 1 345 4 349 14 2 6 12
12 23 12 10 0 19 4 19 9 0 5 8 12 18 14 21 6 -477 5 -530 0z"/>
<path d="M2600 700 c0 -6 28 -10 65 -10 37 0 65 4 65 10 0 6 -28 10 -65 10
-37 0 -65 -4 -65 -10z"/>
<path d="M960 656 l0 -26 155 0 c97 0 155 4 155 10 0 6 -22 10 -49 10 -27 0
-51 4 -53 9 -1 6 -49 13 -105 17 l-103 7 0 -27z"/>
<path d="M1480 673 c8 -3 18 -11 23 -17 5 -8 9 -8 15 1 5 8 42 13 97 16 79 2
76 3 -30 4 -66 1 -113 -1 -105 -4z"/>
<path d="M11873 673 c-18 -2 -33 -8 -33 -14 0 -5 45 -9 100 -9 57 0 100 4 100
10 0 5 35 11 78 13 42 1 12 3 -68 3 -80 1 -160 -1 -177 -3z"/>
<path d="M9100 621 c0 -5 -12 -12 -27 -14 -23 -3 -21 -4 10 -6 27 -1 37 3 37
14 0 8 -4 15 -10 15 -5 0 -10 -4 -10 -9z"/>
<path d="M10290 620 c0 -6 33 -10 80 -10 47 0 80 4 80 10 0 6 -33 10 -80 10
-47 0 -80 -4 -80 -10z"/>
<path d="M7760 593 c0 -8 -22 -13 -57 -16 -42 -2 -35 -3 27 -4 47 0 76 2 65 4
-11 3 -23 10 -27 17 -6 8 -8 8 -8 -1z"/>
<path d="M8140 590 c0 -6 33 -10 80 -10 47 0 80 4 80 10 0 6 -33 10 -80 10
-47 0 -80 -4 -80 -10z"/>
<path d="M4333 573 c48 -2 126 -2 175 0 48 1 8 3 -88 3 -96 0 -136 -2 -87 -3z"/>
<path d="M5483 573 c9 -2 25 -2 35 0 9 3 1 5 -18 5 -19 0 -27 -2 -17 -5z"/>
<path d="M200 555 c0 -11 -12 -15 -45 -15 -48 0 -60 -14 -22 -24 12 -3 209 -5
437 -4 228 2 324 4 213 5 l-203 3 0 25 0 25 -190 0 c-162 0 -190 -2 -190 -15z"/>
<path d="M1160 555 c0 -11 -12 -15 -45 -15 -25 0 -45 -4 -45 -10 0 -5 23 -10
50 -10 28 0 50 5 50 10 0 6 11 10 25 10 16 0 25 6 25 15 0 10 -10 15 -30 15
-20 0 -30 -5 -30 -15z"/>
<path d="M5660 545 c0 -22 4 -25 35 -25 19 0 35 5 35 10 0 6 9 10 20 10 11 0
20 7 20 15 0 12 -13 15 -55 15 -52 0 -55 -1 -55 -25z"/>
<path d="M12280 555 c0 -8 5 -15 10 -15 6 0 10 7 10 15 0 8 -4 15 -10 15 -5 0
-10 -7 -10 -15z"/>
<path d="M6650 530 c0 -5 5 -10 10 -10 6 0 10 5 10 10 0 6 -4 10 -10 10 -5 0
-10 -4 -10 -10z"/>
<path d="M8998 513 c12 -2 32 -2 45 0 12 2 2 4 -23 4 -25 0 -35 -2 -22 -4z"/>
<path d="M14578 513 c-24 -6 -23 -23 2 -23 11 0 20 7 20 15 0 8 -1 14 -2 14
-2 -1 -11 -3 -20 -6z"/>
<path d="M1900 480 c0 -5 -22 -10 -50 -10 -27 0 -50 -4 -50 -10 0 -6 53 -10
140 -10 87 0 140 4 140 10 0 6 -13 10 -30 10 -16 0 -30 5 -30 10 0 6 -27 10
-60 10 -33 0 -60 -4 -60 -10z"/>
<path d="M13170 480 c0 -5 11 -10 25 -10 14 0 25 5 25 10 0 6 -11 10 -25 10
-14 0 -25 -4 -25 -10z"/>
<path d="M0 400 l0 -70 55 0 c64 0 155 18 155 31 0 5 26 9 58 9 85 0 302 23
302 32 0 4 11 8 25 8 14 0 25 4 25 9 0 5 28 14 63 19 47 7 -25 10 -290 11
-228 1 -353 5 -353 11 0 6 -9 10 -20 10 -18 0 -20 -7 -20 -70z"/>
<path d="M4823 433 c-18 -2 -33 -8 -33 -14 0 -5 -16 -9 -35 -9 -19 0 -35 -4
-35 -10 0 -5 16 -10 35 -10 19 0 35 5 35 10 0 6 25 10 55 10 30 0 55 4 55 9 0
6 17 12 38 14 22 2 13 4 -23 4 -33 0 -75 -2 -92 -4z"/>
<path d="M2738 383 c34 -2 88 -2 120 0 31 2 3 3 -63 3 -66 0 -92 -1 -57 -3z"/>
<path d="M15100 380 c0 -6 30 -10 69 -10 47 0 71 -4 73 -12 3 -9 38 -14 116
-16 l112 -4 0 26 0 26 -185 0 c-117 0 -185 -4 -185 -10z"/>
<path d="M1331 314 c0 -11 3 -14 6 -6 3 7 2 16 -1 19 -3 4 -6 -2 -5 -13z"/>
<path d="M1050 290 c-36 -4 -122 -8 -192 -9 -107 -1 -128 -4 -128 -16 0 -13
24 -15 160 -15 136 0 160 2 160 15 0 12 15 15 68 16 37 1 81 5 97 9 40 10 -74
10 -165 0z"/>
<path d="M1883 283 c9 -2 23 -2 30 0 6 3 -1 5 -18 5 -16 0 -22 -2 -12 -5z"/>
<path d="M1670 265 c0 -8 5 -15 10 -15 6 0 10 7 10 15 0 8 -4 15 -10 15 -5 0
-10 -7 -10 -15z"/>
<path d="M120 242 c0 -5 -21 -13 -47 -18 -25 -5 -48 -15 -51 -21 -3 -10 17
-13 77 -13 47 0 81 4 81 10 0 6 37 10 90 10 53 0 90 4 90 10 0 6 50 10 130 10
80 0 130 4 130 10 0 6 -90 10 -250 10 -137 0 -250 -4 -250 -8z"/>
<path d="M14798 213 c12 -2 30 -2 40 0 9 3 -1 5 -23 4 -22 0 -30 -2 -17 -4z"/>
</g>
</svg>
